<?xml version="1.0" encoding="UTF-8" standalone="no"?>
<svg
   xmlns:dc="http://purl.org/dc/elements/1.1/"
   xmlns:cc="http://creativecommons.org/ns#"
   xmlns:rdf="http://www.w3.org/1999/02/22-rdf-syntax-ns#"
   xmlns:svg="http://www.w3.org/2000/svg"
   xmlns="http://www.w3.org/2000/svg"
   xmlns:sodipodi="http://sodipodi.sourceforge.net/DTD/sodipodi-0.dtd"
   xmlns:inkscape="http://www.inkscape.org/namespaces/inkscape"
   version="1.1"
   id="Layer_1"
   x="0px"
   y="0px"
   viewBox="0 0 512.001 512.001"
   style="enable-background:new 0 0 512.001 512.001;"
   xml:space="preserve"
   inkscape:version="0.91 r13725"
   sodipodi:docname="fox.svg"><metadata
     id="metadata25"><rdf:RDF><cc:Work
         rdf:about=""><dc:format>image/svg+xml</dc:format><dc:type
           rdf:resource="http://purl.org/dc/dcmitype/StillImage" /><dc:title></dc:title></cc:Work></rdf:RDF></metadata><defs
     id="defs23" /><sodipodi:namedview
     pagecolor="#ffffff"
     bordercolor="#666666"
     borderopacity="1"
     objecttolerance="10"
     gridtolerance="10"
     guidetolerance="10"
     inkscape:pageopacity="0"
     inkscape:pageshadow="2"
     inkscape:window-width="1920"
     inkscape:window-height="1016"
     id="namedview21"
     showgrid="false"
     inkscape:zoom="0.92187324"
     inkscape:cx="-0.33074339"
     inkscape:cy="321.93997"
     inkscape:window-x="0"
     inkscape:window-y="27"
     inkscape:window-maximized="1"
     inkscape:current-layer="Layer_1" /><path
     d="M 97.320312,28.945312 C 84.830676,47.464053 74.824713,67.740231 69.484017,89.501356 c -9.644752,36.510404 -8.2815,75.880204 4.318717,111.510364 -17.292799,27.85145 -33.546393,58.9921 -62.949619,75.86179 -4.0076484,3.36181 -12.3779038,6.69179 -13.6218308,10.07348 55.0675878,37.74212 110.4025558,75.2722 162.4674158,117.0492 21.46043,16.23588 35.1631,39.80451 53.02591,59.44912 11.79317,13.23515 29.19264,22.18562 47.23437,20.43555 19.98623,-0.86385 36.09181,-15.01157 47.71845,-30.09804 14.65249,-19.04186 29.05429,-38.54294 48.53546,-53.00157 C 407.48165,360.22624 461.62044,323.28268 515.59766,286.38477 499.23836,275.7987 481.9472,265.66275 470.19425,249.63853 458.01074,234.43754 448.40652,217.51969 438.19531,201.01172 456.17118,150.18854 451.21222,91.516941 424.33527,44.73529 420.63804,38.692135 416.94271,32.647812 413.24414,26.605469 389.82688,53.824175 366.40809,81.041566 342.99023,108.25977 302.54226,91.351544 257.18765,89.404544 214.20898,95.505859 198.71803,97.977313 183.44884,102.09081 169.00977,108.25977 145.59126,81.040915 122.17181,53.822879 98.753906,26.603516 c -0.477864,0.780599 -0.955729,1.561198 -1.433594,2.341796 z"
     id="path4165"
     style="stroke:#df0000;stroke-opacity:1;stroke-width:0;stroke-miterlimit:4;stroke-dasharray:none;stroke-linejoin:miter;fill:#e80e17;fill-opacity:1" /><path
     d="m 278.39223,424.6254 c -0.11265,6.87719 1.27403,14.40534 0.23145,20.86817 -11.37961,12.13435 -31.73001,13.04623 -43.68163,1.28028 -4.39616,-5.65422 -0.28872,-15.00308 -1.27149,-22.14845 14.90722,0 29.81445,0 44.72167,0 z"
     id="path7"
     style="fill:#ffffff"
     inkscape:connector-curvature="0" /><g
     id="g9"><g
       id="g11"><path
         d="m 362.027,283.6255 c -14.1645,0 -25.6575,11.6295 -25.6575,25.9785 0,14.3475 11.49,25.9785 25.6575,25.9785 14.148,0 25.6395,-11.631 25.6395,-25.9785 0,-14.349 -11.49,-25.9785 -25.6395,-25.9785 z"
         id="path13"
         style="fill:#ffffff"
         inkscape:connector-curvature="0" /></g></g><g
     id="g15"><g
       id="g17"><path
         d="m 149.99,283.6255 c -14.1645,0 -25.6575,11.6295 -25.6575,25.9785 0,14.3475 11.49,25.9785 25.6575,25.9785 14.148,0 25.6395,-11.631 25.6395,-25.9785 -0.002,-14.349 -11.4915,-25.9785 -25.6395,-25.9785 z"
         id="path19"
         style="fill:#f9f9f9"
         inkscape:connector-curvature="0" /></g></g><path
     style="fill:#ffffff;stroke:#000000;stroke-width:2;stroke-linejoin:miter;stroke-miterlimit:4;stroke-dasharray:none;stroke-opacity:1;fill-opacity:1"
     d="m 95.607439,8.0279902 -1.43165,2.3417998 c -27.70932,38.8019 -46.29886,85.7737 -44.50781,134.01953 0.52465,19.28166 3.55987,38.52945 9.49805,56.89648 -16.23007,27.33533 -33.95518,56.82787 -63.34961,71.6875 -7.6234,4.07201 -13.91729,11.99807 -13.55273,20.98829 62.72276,44.15282 128.202391,85.02798 185.199211,136.64453 19.47337,21.65699 34.16313,50.1197 62.04688,62.35156 26.83509,11.33223 60.06966,1.95343 77.96484,-20.79102 19.58891,-21.43911 34.57081,-47.47836 59.25391,-63.74023 54.48224,-42.88935 112.20467,-81.5539 169.39648,-120.8418 -26.80021,-15.70247 -55.00021,-32.79931 -70.38867,-60.84765 -5.51006,-8.3602 -10.6483,-16.95512 -15.88281,-25.48829 19.20156,-58.39371 8.4147,-124.68936 -25.03516,-175.79492 -3.79551,-9.55568 -19.2112,-12.29992 -24.51953,-2.71094 -20.34179,24.74037 -41.6458,48.66472 -62.42969,73.02735 -52.82457,-18.64559 -111.82278,-18.11756 -164.87304,-0.7168 -3.55494,2.68799 -4.51927,-4.18534 -7.3125,-5.58008 C 142.32433,62.32495 118.96798,35.17526 95.607439,8.0279902 Z M 98.435559,26.9108 c 23.417901,27.21936 46.837351,54.43739 70.255861,81.65625 14.43907,-6.16896 29.70827,-10.28244 45.19922,-12.7539 42.97867,-6.10131 88.33328,-4.15433 128.78125,12.7539 23.41786,-27.21821 46.83665,-54.43558 70.2539,-81.65429 3.69857,6.04235 7.39457,12.08771 11.0918,18.13086 26.87695,46.78166 31.83525,105.4522 13.85938,156.27539 10.21121,16.50797 19.81649,33.42596 32,48.62695 11.75295,16.02422 29.04304,26.16002 45.40234,36.74609 -53.97722,36.89791 -108.11601,73.84147 -159.38476,114.39649 -19.48118,14.45863 -33.88267,33.96009 -48.53516,53.00195 -11.62664,15.08647 -27.73252,29.23381 -47.71875,30.09766 -18.04173,1.75007 -35.44121,-7.2004 -47.23438,-20.43555 -17.86281,-19.64461 -31.56496,-43.21334 -53.02539,-59.44922 -52.06486,-41.777 -107.399201,-79.30671 -162.466791,-117.04883 1.24393,-3.38169 9.61345,-6.7124 13.62109,-10.07421 29.40323,-16.86969 45.65642,-48.00988 62.94922,-75.86133 -12.60022,-35.63017 -13.96311,-74.99936 -4.31836,-111.50977 5.3407,-21.76112 15.3463,-42.0379 27.83594,-60.55664 l 1.43359,-2.3418 z"
     id="path4165-9"
     inkscape:connector-curvature="0" /></svg>